<mxfile host="app.diagrams.net" modified="2022-05-25T01:12:44.055Z" agent="5.0 (Windows NT 10.0; Win64; x64) AppleWebKit/537.36 (KHTML, like Gecko) Chrome/100.0.4896.127 Safari/537.36" etag="F4NdWiGwhRfnEhyJNnN6" version="18.1.2" type="github">
  <diagram id="6a731a19-8d31-9384-78a2-239565b7b9f0" name="Page-1">
    <mxGraphModel dx="1160" dy="646" grid="1" gridSize="10" guides="1" tooltips="1" connect="1" arrows="1" fold="1" page="1" pageScale="1" pageWidth="1920" pageHeight="1200" background="none" math="0" shadow="0">
      <root>
        <mxCell id="0" />
        <mxCell id="1" parent="0" />
        <mxCell id="1745" value="" style="edgeStyle=none;rounded=0;jumpStyle=none;html=1;shadow=0;labelBackgroundColor=none;startArrow=none;startFill=0;endArrow=classic;endFill=1;jettySize=auto;orthogonalLoop=1;strokeColor=#0000CC;strokeWidth=3;fontFamily=Helvetica;fontSize=16;fontColor=#23445D;spacing=5;" parent="1" source="1749" edge="1">
          <mxGeometry relative="1" as="geometry">
            <mxPoint x="2200" y="1212.5" as="targetPoint" />
          </mxGeometry>
        </mxCell>
        <mxCell id="1746" value="" style="edgeStyle=none;rounded=0;jumpStyle=none;html=1;shadow=0;labelBackgroundColor=none;startArrow=none;startFill=0;endArrow=classic;endFill=1;jettySize=auto;orthogonalLoop=1;strokeColor=#0000CC;strokeWidth=3;fontFamily=Helvetica;fontSize=16;fontColor=#23445D;spacing=5;" parent="1" source="1749" target="1771" edge="1">
          <mxGeometry relative="1" as="geometry" />
        </mxCell>
        <mxCell id="1748" value="" style="edgeStyle=none;rounded=0;jumpStyle=none;html=1;shadow=0;labelBackgroundColor=none;startArrow=none;startFill=0;endArrow=classic;endFill=1;jettySize=auto;orthogonalLoop=1;strokeColor=#0000CC;strokeWidth=3;fontFamily=Helvetica;fontSize=16;fontColor=#23445D;spacing=5;" parent="1" source="1749" target="1753" edge="1">
          <mxGeometry relative="1" as="geometry" />
        </mxCell>
        <mxCell id="1749" value="&lt;font style=&quot;font-size: 24px;&quot;&gt;Servidor&lt;/font&gt;" style="rounded=1;whiteSpace=wrap;html=1;shadow=0;labelBackgroundColor=none;strokeColor=none;strokeWidth=3;fillColor=#000099;fontFamily=Lucida Console;fontSize=16;fontColor=#FFFFFF;align=center;fontStyle=1;spacing=5;arcSize=7;perimeterSpacing=2;" parent="1" vertex="1">
          <mxGeometry x="2125" y="1330.5" width="150" height="70" as="geometry" />
        </mxCell>
        <mxCell id="IF7gWzUBNEg38SYdpCg0-1822" style="edgeStyle=entityRelationEdgeStyle;rounded=1;orthogonalLoop=1;jettySize=auto;html=1;exitX=0;exitY=0.5;exitDx=0;exitDy=0;entryX=1;entryY=0.5;entryDx=0;entryDy=0;strokeColor=#0000CC;" parent="1" source="1753" target="IF7gWzUBNEg38SYdpCg0-1782" edge="1">
          <mxGeometry relative="1" as="geometry" />
        </mxCell>
        <mxCell id="IF7gWzUBNEg38SYdpCg0-1823" style="edgeStyle=entityRelationEdgeStyle;rounded=1;orthogonalLoop=1;jettySize=auto;html=1;exitX=0;exitY=0.5;exitDx=0;exitDy=0;entryX=1;entryY=0.5;entryDx=0;entryDy=0;strokeColor=#0000CC;" parent="1" source="1753" target="IF7gWzUBNEg38SYdpCg0-1783" edge="1">
          <mxGeometry relative="1" as="geometry" />
        </mxCell>
        <mxCell id="IF7gWzUBNEg38SYdpCg0-1824" style="edgeStyle=entityRelationEdgeStyle;rounded=1;orthogonalLoop=1;jettySize=auto;html=1;exitX=0;exitY=0.5;exitDx=0;exitDy=0;entryX=1;entryY=0.5;entryDx=0;entryDy=0;strokeColor=#0000CC;" parent="1" source="1753" target="IF7gWzUBNEg38SYdpCg0-1781" edge="1">
          <mxGeometry relative="1" as="geometry" />
        </mxCell>
        <mxCell id="IF7gWzUBNEg38SYdpCg0-1825" style="edgeStyle=entityRelationEdgeStyle;rounded=1;orthogonalLoop=1;jettySize=auto;html=1;exitX=0;exitY=0.5;exitDx=0;exitDy=0;entryX=1;entryY=0.5;entryDx=0;entryDy=0;strokeColor=#0000CC;" parent="1" source="1753" target="IF7gWzUBNEg38SYdpCg0-1784" edge="1">
          <mxGeometry relative="1" as="geometry" />
        </mxCell>
        <mxCell id="IF7gWzUBNEg38SYdpCg0-1826" style="edgeStyle=entityRelationEdgeStyle;rounded=1;orthogonalLoop=1;jettySize=auto;html=1;exitX=0;exitY=0.5;exitDx=0;exitDy=0;entryX=1;entryY=0.5;entryDx=0;entryDy=0;strokeColor=#0000CC;" parent="1" source="1753" target="IF7gWzUBNEg38SYdpCg0-1786" edge="1">
          <mxGeometry relative="1" as="geometry" />
        </mxCell>
        <mxCell id="IF7gWzUBNEg38SYdpCg0-1827" style="edgeStyle=entityRelationEdgeStyle;rounded=1;orthogonalLoop=1;jettySize=auto;html=1;exitX=0;exitY=0.5;exitDx=0;exitDy=0;entryX=1;entryY=0.5;entryDx=0;entryDy=0;strokeColor=#0000CC;" parent="1" source="1753" target="IF7gWzUBNEg38SYdpCg0-1787" edge="1">
          <mxGeometry relative="1" as="geometry" />
        </mxCell>
        <mxCell id="IF7gWzUBNEg38SYdpCg0-1828" style="edgeStyle=entityRelationEdgeStyle;rounded=1;orthogonalLoop=1;jettySize=auto;html=1;exitX=0;exitY=0.5;exitDx=0;exitDy=0;entryX=1;entryY=0.5;entryDx=0;entryDy=0;strokeColor=#0000CC;" parent="1" source="1753" target="IF7gWzUBNEg38SYdpCg0-1780" edge="1">
          <mxGeometry relative="1" as="geometry" />
        </mxCell>
        <mxCell id="IF7gWzUBNEg38SYdpCg0-1829" style="edgeStyle=entityRelationEdgeStyle;rounded=1;orthogonalLoop=1;jettySize=auto;html=1;exitX=0;exitY=0.5;exitDx=0;exitDy=0;entryX=1;entryY=0.5;entryDx=0;entryDy=0;strokeColor=#0000CC;" parent="1" source="1753" target="IF7gWzUBNEg38SYdpCg0-1788" edge="1">
          <mxGeometry relative="1" as="geometry" />
        </mxCell>
        <mxCell id="IF7gWzUBNEg38SYdpCg0-1830" style="edgeStyle=entityRelationEdgeStyle;rounded=1;orthogonalLoop=1;jettySize=auto;html=1;exitX=0;exitY=0.5;exitDx=0;exitDy=0;entryX=1;entryY=0.5;entryDx=0;entryDy=0;strokeColor=#0000CC;" parent="1" source="1753" target="IF7gWzUBNEg38SYdpCg0-1779" edge="1">
          <mxGeometry relative="1" as="geometry" />
        </mxCell>
        <mxCell id="IF7gWzUBNEg38SYdpCg0-1831" style="edgeStyle=entityRelationEdgeStyle;rounded=1;orthogonalLoop=1;jettySize=auto;html=1;exitX=0;exitY=0.5;exitDx=0;exitDy=0;entryX=1;entryY=0.5;entryDx=0;entryDy=0;strokeColor=#0000CC;" parent="1" source="1753" target="1756" edge="1">
          <mxGeometry relative="1" as="geometry" />
        </mxCell>
        <mxCell id="IF7gWzUBNEg38SYdpCg0-1882" style="edgeStyle=entityRelationEdgeStyle;rounded=1;orthogonalLoop=1;jettySize=auto;html=1;exitX=0;exitY=0.5;exitDx=0;exitDy=0;entryX=1;entryY=0.5;entryDx=0;entryDy=0;fontColor=#FF66FF;strokeColor=#0000CC;" parent="1" source="1753" target="IF7gWzUBNEg38SYdpCg0-1881" edge="1">
          <mxGeometry relative="1" as="geometry" />
        </mxCell>
        <mxCell id="1753" value="Usuários" style="rounded=1;whiteSpace=wrap;html=1;shadow=0;labelBackgroundColor=none;strokeColor=none;strokeWidth=3;fillColor=#3333FF;fontFamily=Helvetica;fontSize=14;fontColor=#FFFFFF;align=center;spacing=5;fontStyle=1;arcSize=7;perimeterSpacing=2;" parent="1" vertex="1">
          <mxGeometry x="1845" y="1335.5" width="150" height="60" as="geometry" />
        </mxCell>
        <mxCell id="1756" value="Senha" style="rounded=1;whiteSpace=wrap;html=1;shadow=0;labelBackgroundColor=none;strokeColor=none;strokeWidth=3;fillColor=#9999FF;fontFamily=Helvetica;fontSize=14;fontColor=#FFFFFF;align=center;spacing=5;fontStyle=0;arcSize=7;perimeterSpacing=2;" parent="1" vertex="1">
          <mxGeometry x="1500" y="1187" width="150" height="25.5" as="geometry" />
        </mxCell>
        <mxCell id="1766" value="" style="edgeStyle=none;rounded=0;jumpStyle=none;html=1;shadow=0;labelBackgroundColor=none;startArrow=none;startFill=0;endArrow=classic;endFill=1;jettySize=auto;orthogonalLoop=1;strokeColor=#F08705;strokeWidth=3;fontFamily=Helvetica;fontSize=14;fontColor=#FFFFFF;spacing=5;" parent="1" edge="1">
          <mxGeometry relative="1" as="geometry">
            <mxPoint x="641.1111111111109" y="198.5" as="sourcePoint" />
          </mxGeometry>
        </mxCell>
        <mxCell id="1768" value="" style="edgeStyle=none;rounded=0;jumpStyle=none;html=1;shadow=0;labelBackgroundColor=none;startArrow=none;startFill=0;endArrow=classic;endFill=1;jettySize=auto;orthogonalLoop=1;strokeColor=#F08705;strokeWidth=3;fontFamily=Helvetica;fontSize=14;fontColor=#FFFFFF;spacing=5;" parent="1" edge="1">
          <mxGeometry relative="1" as="geometry">
            <mxPoint x="570" y="198.5" as="sourcePoint" />
          </mxGeometry>
        </mxCell>
        <mxCell id="1770" value="" style="edgeStyle=none;rounded=0;jumpStyle=none;html=1;shadow=0;labelBackgroundColor=none;startArrow=none;startFill=0;endArrow=classic;endFill=1;jettySize=auto;orthogonalLoop=1;strokeColor=#F08705;strokeWidth=3;fontFamily=Helvetica;fontSize=14;fontColor=#FFFFFF;spacing=5;" parent="1" edge="1">
          <mxGeometry relative="1" as="geometry">
            <mxPoint x="498.88888888888914" y="198.5" as="sourcePoint" />
          </mxGeometry>
        </mxCell>
        <mxCell id="IF7gWzUBNEg38SYdpCg0-1883" style="edgeStyle=entityRelationEdgeStyle;rounded=1;orthogonalLoop=1;jettySize=auto;html=1;exitX=1;exitY=0.5;exitDx=0;exitDy=0;entryX=0;entryY=0.5;entryDx=0;entryDy=0;fontColor=#FF66FF;strokeColor=#6600CC;" parent="1" source="1771" target="IF7gWzUBNEg38SYdpCg0-1877" edge="1">
          <mxGeometry relative="1" as="geometry" />
        </mxCell>
        <mxCell id="IF7gWzUBNEg38SYdpCg0-1884" style="edgeStyle=entityRelationEdgeStyle;rounded=1;orthogonalLoop=1;jettySize=auto;html=1;exitX=1;exitY=0.5;exitDx=0;exitDy=0;entryX=0;entryY=0.5;entryDx=0;entryDy=0;fontColor=#FF66FF;strokeColor=#6600CC;" parent="1" source="1771" target="IF7gWzUBNEg38SYdpCg0-1878" edge="1">
          <mxGeometry relative="1" as="geometry" />
        </mxCell>
        <mxCell id="1771" value="Público" style="rounded=1;whiteSpace=wrap;html=1;shadow=0;labelBackgroundColor=none;strokeColor=none;strokeWidth=3;fillColor=#9933FF;fontFamily=Helvetica;fontSize=14;fontColor=#FFFFFF;align=center;spacing=5;fontStyle=1;arcSize=7;perimeterSpacing=2;" parent="1" vertex="1">
          <mxGeometry x="2425" y="1335.5" width="150" height="60" as="geometry" />
        </mxCell>
        <mxCell id="IF7gWzUBNEg38SYdpCg0-1779" value="Email" style="rounded=1;whiteSpace=wrap;html=1;shadow=0;labelBackgroundColor=none;strokeColor=none;strokeWidth=3;fillColor=#9999FF;fontFamily=Helvetica;fontSize=14;fontColor=#FFFFFF;align=center;spacing=5;fontStyle=0;arcSize=7;perimeterSpacing=2;" parent="1" vertex="1">
          <mxGeometry x="1500" y="1224" width="150" height="25.5" as="geometry" />
        </mxCell>
        <mxCell id="IF7gWzUBNEg38SYdpCg0-1780" value="Nome" style="rounded=1;whiteSpace=wrap;html=1;shadow=0;labelBackgroundColor=none;strokeColor=none;strokeWidth=3;fillColor=#9999FF;fontFamily=Helvetica;fontSize=14;fontColor=#FFFFFF;align=center;spacing=5;fontStyle=0;arcSize=7;perimeterSpacing=2;" parent="1" vertex="1">
          <mxGeometry x="1500" y="1261" width="150" height="25.5" as="geometry" />
        </mxCell>
        <mxCell id="IF7gWzUBNEg38SYdpCg0-1781" value="Número de celular" style="rounded=1;whiteSpace=wrap;html=1;shadow=0;labelBackgroundColor=none;strokeColor=none;strokeWidth=3;fillColor=#9999FF;fontFamily=Helvetica;fontSize=14;fontColor=#FFFFFF;align=center;spacing=5;fontStyle=0;arcSize=7;perimeterSpacing=2;" parent="1" vertex="1">
          <mxGeometry x="1500" y="1298" width="150" height="25.5" as="geometry" />
        </mxCell>
        <mxCell id="IF7gWzUBNEg38SYdpCg0-1782" value="Código" style="rounded=1;whiteSpace=wrap;html=1;shadow=0;labelBackgroundColor=none;strokeColor=none;strokeWidth=3;fillColor=#9999FF;fontFamily=Helvetica;fontSize=14;fontColor=#FFFFFF;align=center;spacing=5;fontStyle=0;arcSize=7;perimeterSpacing=2;" parent="1" vertex="1">
          <mxGeometry x="1500" y="1335" width="150" height="25.5" as="geometry" />
        </mxCell>
        <mxCell id="IF7gWzUBNEg38SYdpCg0-1783" value="Curtidas" style="rounded=1;whiteSpace=wrap;html=1;shadow=0;labelBackgroundColor=none;strokeColor=none;strokeWidth=3;fillColor=#9999FF;fontFamily=Helvetica;fontSize=14;fontColor=#FFFFFF;align=center;spacing=5;fontStyle=0;arcSize=7;perimeterSpacing=2;" parent="1" vertex="1">
          <mxGeometry x="1500" y="1372" width="150" height="25.5" as="geometry" />
        </mxCell>
        <mxCell id="IF7gWzUBNEg38SYdpCg0-1784" value="Publicações" style="rounded=1;whiteSpace=wrap;html=1;shadow=0;labelBackgroundColor=none;strokeColor=none;strokeWidth=3;fillColor=#9999FF;fontFamily=Helvetica;fontSize=14;fontColor=#FFFFFF;align=center;spacing=5;fontStyle=0;arcSize=7;perimeterSpacing=2;" parent="1" vertex="1">
          <mxGeometry x="1500" y="1409" width="150" height="25.5" as="geometry" />
        </mxCell>
        <mxCell id="IF7gWzUBNEg38SYdpCg0-1786" value="Data de nascimento" style="rounded=1;whiteSpace=wrap;html=1;shadow=0;labelBackgroundColor=none;strokeColor=none;strokeWidth=3;fillColor=#9999FF;fontFamily=Helvetica;fontSize=14;fontColor=#FFFFFF;align=center;spacing=5;fontStyle=0;arcSize=7;perimeterSpacing=2;" parent="1" vertex="1">
          <mxGeometry x="1500" y="1446" width="150" height="25.5" as="geometry" />
        </mxCell>
        <mxCell id="IF7gWzUBNEg38SYdpCg0-1787" value="Apelido ou @" style="rounded=1;whiteSpace=wrap;html=1;shadow=0;labelBackgroundColor=none;strokeColor=none;strokeWidth=3;fillColor=#9999FF;fontFamily=Helvetica;fontSize=14;fontColor=#FFFFFF;align=center;spacing=5;fontStyle=0;arcSize=7;perimeterSpacing=2;" parent="1" vertex="1">
          <mxGeometry x="1500" y="1483" width="150" height="25.5" as="geometry" />
        </mxCell>
        <mxCell id="IF7gWzUBNEg38SYdpCg0-1788" value="Chat próprio" style="rounded=1;whiteSpace=wrap;html=1;shadow=0;labelBackgroundColor=none;strokeColor=none;strokeWidth=3;fillColor=#9999FF;fontFamily=Helvetica;fontSize=14;fontColor=#FFFFFF;align=center;spacing=5;fontStyle=0;arcSize=7;perimeterSpacing=2;" parent="1" vertex="1">
          <mxGeometry x="1500" y="1520" width="150" height="25.5" as="geometry" />
        </mxCell>
        <mxCell id="IF7gWzUBNEg38SYdpCg0-1842" value="Administradores" style="rounded=1;whiteSpace=wrap;html=1;shadow=0;labelBackgroundColor=none;strokeColor=none;strokeWidth=3;fillColor=#009900;fontFamily=Helvetica;fontSize=14;fontColor=#FFFFFF;align=center;spacing=5;fontStyle=1;arcSize=7;perimeterSpacing=2;" parent="1" vertex="1">
          <mxGeometry x="2125" y="1150" width="150" height="60" as="geometry" />
        </mxCell>
        <mxCell id="IF7gWzUBNEg38SYdpCg0-1843" value="Senha" style="rounded=1;whiteSpace=wrap;html=1;shadow=0;labelBackgroundColor=none;strokeColor=none;strokeWidth=3;fillColor=#66FF66;fontFamily=Helvetica;fontSize=14;fontColor=#FFFFFF;align=center;spacing=5;fontStyle=0;arcSize=7;perimeterSpacing=2;" parent="1" vertex="1">
          <mxGeometry x="2125" y="727" width="150" height="25.5" as="geometry" />
        </mxCell>
        <mxCell id="IF7gWzUBNEg38SYdpCg0-1844" value="Email" style="rounded=1;whiteSpace=wrap;html=1;shadow=0;labelBackgroundColor=none;strokeColor=none;strokeWidth=3;fillColor=#66FF66;fontFamily=Helvetica;fontSize=14;fontColor=#FFFFFF;align=center;spacing=5;fontStyle=0;arcSize=7;perimeterSpacing=2;" parent="1" vertex="1">
          <mxGeometry x="2125" y="765" width="150" height="25.5" as="geometry" />
        </mxCell>
        <mxCell id="IF7gWzUBNEg38SYdpCg0-1845" value="Nome" style="rounded=1;whiteSpace=wrap;html=1;shadow=0;labelBackgroundColor=none;strokeColor=none;strokeWidth=3;fillColor=#66FF66;fontFamily=Helvetica;fontSize=14;fontColor=#FFFFFF;align=center;spacing=5;fontStyle=0;arcSize=7;perimeterSpacing=2;" parent="1" vertex="1">
          <mxGeometry x="2125" y="802" width="150" height="25.5" as="geometry" />
        </mxCell>
        <mxCell id="IF7gWzUBNEg38SYdpCg0-1846" value="Número de celular" style="rounded=1;whiteSpace=wrap;html=1;shadow=0;labelBackgroundColor=none;strokeColor=none;strokeWidth=3;fillColor=#66FF66;fontFamily=Helvetica;fontSize=14;fontColor=#FFFFFF;align=center;spacing=5;fontStyle=0;arcSize=7;perimeterSpacing=2;" parent="1" vertex="1">
          <mxGeometry x="2125" y="839" width="150" height="25.5" as="geometry" />
        </mxCell>
        <mxCell id="IF7gWzUBNEg38SYdpCg0-1847" value="Código" style="rounded=1;whiteSpace=wrap;html=1;shadow=0;labelBackgroundColor=none;strokeColor=none;strokeWidth=3;fillColor=#66FF66;fontFamily=Helvetica;fontSize=14;fontColor=#FFFFFF;align=center;spacing=5;fontStyle=0;arcSize=7;perimeterSpacing=2;" parent="1" vertex="1">
          <mxGeometry x="2125" y="876" width="150" height="25.5" as="geometry" />
        </mxCell>
        <mxCell id="IF7gWzUBNEg38SYdpCg0-1848" value="Curtidas" style="rounded=1;whiteSpace=wrap;html=1;shadow=0;labelBackgroundColor=none;strokeColor=none;strokeWidth=3;fillColor=#66FF66;fontFamily=Helvetica;fontSize=14;fontColor=#FFFFFF;align=center;spacing=5;fontStyle=0;arcSize=7;perimeterSpacing=2;" parent="1" vertex="1">
          <mxGeometry x="2125" y="914" width="150" height="25.5" as="geometry" />
        </mxCell>
        <mxCell id="IF7gWzUBNEg38SYdpCg0-1849" value="Publicações" style="rounded=1;whiteSpace=wrap;html=1;shadow=0;labelBackgroundColor=none;strokeColor=none;strokeWidth=3;fillColor=#66FF66;fontFamily=Helvetica;fontSize=14;fontColor=#FFFFFF;align=center;spacing=5;fontStyle=0;arcSize=7;perimeterSpacing=2;" parent="1" vertex="1">
          <mxGeometry x="2125" y="951" width="150" height="25.5" as="geometry" />
        </mxCell>
        <mxCell id="IF7gWzUBNEg38SYdpCg0-1850" value="Data de nascimento" style="rounded=1;whiteSpace=wrap;html=1;shadow=0;labelBackgroundColor=none;strokeColor=none;strokeWidth=3;fillColor=#66FF66;fontFamily=Helvetica;fontSize=14;fontColor=#FFFFFF;align=center;spacing=5;fontStyle=0;arcSize=7;perimeterSpacing=2;" parent="1" vertex="1">
          <mxGeometry x="2125" y="988" width="150" height="25.5" as="geometry" />
        </mxCell>
        <mxCell id="IF7gWzUBNEg38SYdpCg0-1851" value="Apelido ou @" style="rounded=1;whiteSpace=wrap;html=1;shadow=0;labelBackgroundColor=none;strokeColor=none;strokeWidth=3;fillColor=#66FF66;fontFamily=Helvetica;fontSize=14;fontColor=#FFFFFF;align=center;spacing=5;fontStyle=0;arcSize=7;perimeterSpacing=2;" parent="1" vertex="1">
          <mxGeometry x="2125" y="1025" width="150" height="25.5" as="geometry" />
        </mxCell>
        <mxCell id="IF7gWzUBNEg38SYdpCg0-1852" value="Chat próprio" style="rounded=1;whiteSpace=wrap;html=1;shadow=0;labelBackgroundColor=none;strokeColor=none;strokeWidth=3;fillColor=#66FF66;fontFamily=Helvetica;fontSize=14;fontColor=#FFFFFF;align=center;spacing=5;fontStyle=0;arcSize=7;perimeterSpacing=2;" parent="1" vertex="1">
          <mxGeometry x="2125" y="1063" width="150" height="25.5" as="geometry" />
        </mxCell>
        <mxCell id="IF7gWzUBNEg38SYdpCg0-1875" style="edgeStyle=elbowEdgeStyle;rounded=1;orthogonalLoop=1;jettySize=auto;html=1;exitX=1;exitY=0.5;exitDx=0;exitDy=0;entryX=0.5;entryY=0;entryDx=0;entryDy=0;strokeColor=#003300;" parent="1" source="IF7gWzUBNEg38SYdpCg0-1866" target="IF7gWzUBNEg38SYdpCg0-1871" edge="1">
          <mxGeometry relative="1" as="geometry">
            <Array as="points">
              <mxPoint x="2384" y="1130" />
              <mxPoint x="2834" y="1100" />
            </Array>
          </mxGeometry>
        </mxCell>
        <mxCell id="IF7gWzUBNEg38SYdpCg0-1866" value="Token" style="rounded=1;whiteSpace=wrap;html=1;shadow=0;labelBackgroundColor=none;strokeColor=none;strokeWidth=3;fillColor=#66FF66;fontFamily=Helvetica;fontSize=14;fontColor=#FFFFFF;align=center;spacing=5;fontStyle=0;arcSize=7;perimeterSpacing=2;" parent="1" vertex="1">
          <mxGeometry x="2125" y="1100" width="150" height="25.5" as="geometry" />
        </mxCell>
        <mxCell id="IF7gWzUBNEg38SYdpCg0-1871" value="Funcionamento Token" style="swimlane;fontStyle=0;childLayout=stackLayout;horizontal=1;startSize=30;horizontalStack=0;resizeParent=1;resizeParentMax=0;resizeLast=0;collapsible=1;marginBottom=0;fillColor=#66FF66;" parent="1" vertex="1">
          <mxGeometry x="2314" y="1150" width="140" height="80" as="geometry" />
        </mxCell>
        <mxCell id="IF7gWzUBNEg38SYdpCg0-1872" value="Será usado para verificar se o usuário é um administrador" style="text;strokeColor=none;fillColor=none;align=left;verticalAlign=middle;spacingLeft=4;spacingRight=4;overflow=hidden;points=[[0,0.5],[1,0.5]];portConstraint=eastwest;rotatable=0;whiteSpace=wrap;" parent="IF7gWzUBNEg38SYdpCg0-1871" vertex="1">
          <mxGeometry y="30" width="140" height="50" as="geometry" />
        </mxCell>
        <mxCell id="IF7gWzUBNEg38SYdpCg0-1877" value="Publicações" style="rounded=1;whiteSpace=wrap;html=1;shadow=0;labelBackgroundColor=none;strokeColor=none;strokeWidth=3;fillColor=#FF99CC;fontFamily=Helvetica;fontSize=14;fontColor=#FFFFFF;align=center;spacing=5;fontStyle=0;arcSize=7;perimeterSpacing=2;" parent="1" vertex="1">
          <mxGeometry x="2644" y="1333.5" width="150" height="25.5" as="geometry" />
        </mxCell>
        <mxCell id="IF7gWzUBNEg38SYdpCg0-1878" value="Perfis" style="rounded=1;whiteSpace=wrap;html=1;shadow=0;labelBackgroundColor=none;strokeColor=none;strokeWidth=3;fillColor=#FF99CC;fontFamily=Helvetica;fontSize=14;fontColor=#FFFFFF;align=center;spacing=5;fontStyle=0;arcSize=7;perimeterSpacing=2;" parent="1" vertex="1">
          <mxGeometry x="2644" y="1372" width="150" height="25.5" as="geometry" />
        </mxCell>
        <mxCell id="IF7gWzUBNEg38SYdpCg0-1879" value="Perfil" style="rounded=1;whiteSpace=wrap;html=1;shadow=0;labelBackgroundColor=none;strokeColor=none;strokeWidth=3;fillColor=#66FF66;fontFamily=Helvetica;fontSize=14;fontColor=#FFFFFF;align=center;spacing=5;fontStyle=0;arcSize=7;perimeterSpacing=2;" parent="1" vertex="1">
          <mxGeometry x="2125" y="690" width="150" height="25.5" as="geometry" />
        </mxCell>
        <mxCell id="IF7gWzUBNEg38SYdpCg0-1881" value="Perfil" style="rounded=1;whiteSpace=wrap;html=1;shadow=0;labelBackgroundColor=none;strokeColor=none;strokeWidth=3;fillColor=#9999FF;fontFamily=Helvetica;fontSize=14;fontColor=#FFFFFF;align=center;spacing=5;fontStyle=0;arcSize=7;perimeterSpacing=2;" parent="1" vertex="1">
          <mxGeometry x="1500" y="1150" width="150" height="25.5" as="geometry" />
        </mxCell>
        <mxCell id="IF7gWzUBNEg38SYdpCg0-1885" value="Patrocinadores e Anunciantes" style="rounded=1;whiteSpace=wrap;html=1;shadow=0;labelBackgroundColor=none;strokeColor=none;strokeWidth=3;fillColor=#006666;fontFamily=Helvetica;fontSize=14;fontColor=#FFFFFF;align=center;spacing=5;fontStyle=1;arcSize=7;perimeterSpacing=2;" parent="1" vertex="1">
          <mxGeometry x="2125" y="1520" width="150" height="60" as="geometry" />
        </mxCell>
        <mxCell id="IF7gWzUBNEg38SYdpCg0-1887" value="" style="edgeStyle=none;rounded=0;jumpStyle=none;html=1;shadow=0;labelBackgroundColor=none;startArrow=none;startFill=0;endArrow=classic;endFill=1;jettySize=auto;orthogonalLoop=1;strokeColor=#0000CC;strokeWidth=3;fontFamily=Helvetica;fontSize=16;fontColor=#23445D;spacing=5;entryX=0.5;entryY=0;entryDx=0;entryDy=0;exitX=0.5;exitY=1;exitDx=0;exitDy=0;" parent="1" source="1749" target="IF7gWzUBNEg38SYdpCg0-1885" edge="1">
          <mxGeometry relative="1" as="geometry">
            <mxPoint x="2210" y="1338.5" as="sourcePoint" />
            <mxPoint x="2210" y="1222.5" as="targetPoint" />
          </mxGeometry>
        </mxCell>
        <mxCell id="IF7gWzUBNEg38SYdpCg0-1889" value="Senha" style="rounded=1;whiteSpace=wrap;html=1;shadow=0;labelBackgroundColor=none;strokeColor=none;strokeWidth=3;fillColor=#33FF99;fontFamily=Helvetica;fontSize=14;fontColor=#FFFFFF;align=center;spacing=5;fontStyle=0;arcSize=7;perimeterSpacing=2;" parent="1" vertex="1">
          <mxGeometry x="2125" y="1637" width="150" height="25.5" as="geometry" />
        </mxCell>
        <mxCell id="IF7gWzUBNEg38SYdpCg0-1890" value="Email" style="rounded=1;whiteSpace=wrap;html=1;shadow=0;labelBackgroundColor=none;strokeColor=none;strokeWidth=3;fillColor=#33FF99;fontFamily=Helvetica;fontSize=14;fontColor=#FFFFFF;align=center;spacing=5;fontStyle=0;arcSize=7;perimeterSpacing=2;" parent="1" vertex="1">
          <mxGeometry x="2125" y="1675" width="150" height="25.5" as="geometry" />
        </mxCell>
        <mxCell id="IF7gWzUBNEg38SYdpCg0-1891" value="Nome" style="rounded=1;whiteSpace=wrap;html=1;shadow=0;labelBackgroundColor=none;strokeColor=none;strokeWidth=3;fillColor=#33FF99;fontFamily=Helvetica;fontSize=14;fontColor=#FFFFFF;align=center;spacing=5;fontStyle=0;arcSize=7;perimeterSpacing=2;" parent="1" vertex="1">
          <mxGeometry x="2125" y="1712" width="150" height="25.5" as="geometry" />
        </mxCell>
        <mxCell id="IF7gWzUBNEg38SYdpCg0-1892" value="Número de celular" style="rounded=1;whiteSpace=wrap;html=1;shadow=0;labelBackgroundColor=none;strokeColor=none;strokeWidth=3;fillColor=#33FF99;fontFamily=Helvetica;fontSize=14;fontColor=#FFFFFF;align=center;spacing=5;fontStyle=0;arcSize=7;perimeterSpacing=2;" parent="1" vertex="1">
          <mxGeometry x="2125" y="1749" width="150" height="25.5" as="geometry" />
        </mxCell>
        <mxCell id="IF7gWzUBNEg38SYdpCg0-1893" value="Código" style="rounded=1;whiteSpace=wrap;html=1;shadow=0;labelBackgroundColor=none;strokeColor=none;strokeWidth=3;fillColor=#33FF99;fontFamily=Helvetica;fontSize=14;fontColor=#FFFFFF;align=center;spacing=5;fontStyle=0;arcSize=7;perimeterSpacing=2;" parent="1" vertex="1">
          <mxGeometry x="2125" y="1786" width="150" height="25.5" as="geometry" />
        </mxCell>
        <mxCell id="IF7gWzUBNEg38SYdpCg0-1894" value="Curtidas" style="rounded=1;whiteSpace=wrap;html=1;shadow=0;labelBackgroundColor=none;strokeColor=none;strokeWidth=3;fillColor=#33FF99;fontFamily=Helvetica;fontSize=14;fontColor=#FFFFFF;align=center;spacing=5;fontStyle=0;arcSize=7;perimeterSpacing=2;" parent="1" vertex="1">
          <mxGeometry x="2125" y="1824" width="150" height="25.5" as="geometry" />
        </mxCell>
        <mxCell id="IF7gWzUBNEg38SYdpCg0-1895" value="Publicações" style="rounded=1;whiteSpace=wrap;html=1;shadow=0;labelBackgroundColor=none;strokeColor=none;strokeWidth=3;fillColor=#33FF99;fontFamily=Helvetica;fontSize=14;fontColor=#FFFFFF;align=center;spacing=5;fontStyle=0;arcSize=7;perimeterSpacing=2;" parent="1" vertex="1">
          <mxGeometry x="2125" y="1861" width="150" height="25.5" as="geometry" />
        </mxCell>
        <mxCell id="IF7gWzUBNEg38SYdpCg0-1896" value="Data de nascimento" style="rounded=1;whiteSpace=wrap;html=1;shadow=0;labelBackgroundColor=none;strokeColor=none;strokeWidth=3;fillColor=#33FF99;fontFamily=Helvetica;fontSize=14;fontColor=#FFFFFF;align=center;spacing=5;fontStyle=0;arcSize=7;perimeterSpacing=2;" parent="1" vertex="1">
          <mxGeometry x="2125" y="1898" width="150" height="25.5" as="geometry" />
        </mxCell>
        <mxCell id="IF7gWzUBNEg38SYdpCg0-1897" value="Apelido ou @" style="rounded=1;whiteSpace=wrap;html=1;shadow=0;labelBackgroundColor=none;strokeColor=none;strokeWidth=3;fillColor=#33FF99;fontFamily=Helvetica;fontSize=14;fontColor=#FFFFFF;align=center;spacing=5;fontStyle=0;arcSize=7;perimeterSpacing=2;" parent="1" vertex="1">
          <mxGeometry x="2125" y="1935" width="150" height="25.5" as="geometry" />
        </mxCell>
        <mxCell id="IF7gWzUBNEg38SYdpCg0-1898" value="Chat próprio" style="rounded=1;whiteSpace=wrap;html=1;shadow=0;labelBackgroundColor=none;strokeColor=none;strokeWidth=3;fillColor=#33FF99;fontFamily=Helvetica;fontSize=14;fontColor=#FFFFFF;align=center;spacing=5;fontStyle=0;arcSize=7;perimeterSpacing=2;" parent="1" vertex="1">
          <mxGeometry x="2125" y="1973" width="150" height="25.5" as="geometry" />
        </mxCell>
        <mxCell id="IF7gWzUBNEg38SYdpCg0-1903" style="edgeStyle=orthogonalEdgeStyle;rounded=1;orthogonalLoop=1;jettySize=auto;html=1;exitX=1;exitY=0.5;exitDx=0;exitDy=0;entryX=0.5;entryY=0;entryDx=0;entryDy=0;fontFamily=Lucida Console;fontSize=24;fontColor=#FF66FF;strokeColor=#003333;elbow=vertical;" parent="1" source="IF7gWzUBNEg38SYdpCg0-1899" target="IF7gWzUBNEg38SYdpCg0-1901" edge="1">
          <mxGeometry relative="1" as="geometry" />
        </mxCell>
        <mxCell id="IF7gWzUBNEg38SYdpCg0-1899" value="Token" style="rounded=1;whiteSpace=wrap;html=1;shadow=0;labelBackgroundColor=none;strokeColor=none;strokeWidth=3;fillColor=#33FF99;fontFamily=Helvetica;fontSize=14;fontColor=#FFFFFF;align=center;spacing=5;fontStyle=0;arcSize=7;perimeterSpacing=2;" parent="1" vertex="1">
          <mxGeometry x="2125" y="2010" width="150" height="25.5" as="geometry" />
        </mxCell>
        <mxCell id="IF7gWzUBNEg38SYdpCg0-1900" value="Perfil" style="rounded=1;whiteSpace=wrap;html=1;shadow=0;labelBackgroundColor=none;strokeColor=none;strokeWidth=3;fillColor=#33FF99;fontFamily=Helvetica;fontSize=14;fontColor=#FFFFFF;align=center;spacing=5;fontStyle=0;arcSize=7;perimeterSpacing=2;" parent="1" vertex="1">
          <mxGeometry x="2125" y="1600" width="150" height="25.5" as="geometry" />
        </mxCell>
        <mxCell id="IF7gWzUBNEg38SYdpCg0-1901" value="Funcionamento Token" style="swimlane;fontStyle=0;childLayout=stackLayout;horizontal=1;startSize=30;horizontalStack=0;resizeParent=1;resizeParentMax=0;resizeLast=0;collapsible=1;marginBottom=0;fillColor=#003333;fontColor=#FFFFFF;" parent="1" vertex="1">
          <mxGeometry x="2344" y="2060" width="140" height="140" as="geometry" />
        </mxCell>
        <mxCell id="IF7gWzUBNEg38SYdpCg0-1902" value="Será usado para verificar se o usuário é um apoiador, para se tornar um apoiador será necessário fazer uma assinatura no site." style="text;strokeColor=none;fillColor=none;align=left;verticalAlign=middle;spacingLeft=4;spacingRight=4;overflow=hidden;points=[[0,0.5],[1,0.5]];portConstraint=eastwest;rotatable=0;whiteSpace=wrap;" parent="IF7gWzUBNEg38SYdpCg0-1901" vertex="1">
          <mxGeometry y="30" width="140" height="110" as="geometry" />
        </mxCell>
        <mxCell id="xh8E368RDv3vVkwyLtps-1779" value="Notificações" style="rounded=1;whiteSpace=wrap;html=1;shadow=0;labelBackgroundColor=none;strokeColor=none;strokeWidth=3;fillColor=#9999FF;fontFamily=Helvetica;fontSize=14;fontColor=#FFFFFF;align=center;spacing=5;fontStyle=0;arcSize=7;perimeterSpacing=2;" parent="1" vertex="1">
          <mxGeometry x="1500" y="1554.5" width="150" height="25.5" as="geometry" />
        </mxCell>
        <mxCell id="xh8E368RDv3vVkwyLtps-1780" value="Posts Salvos" style="rounded=1;whiteSpace=wrap;html=1;shadow=0;labelBackgroundColor=none;strokeColor=none;strokeWidth=3;fillColor=#9999FF;fontFamily=Helvetica;fontSize=14;fontColor=#FFFFFF;align=center;spacing=5;fontStyle=0;arcSize=7;perimeterSpacing=2;" parent="1" vertex="1">
          <mxGeometry x="1500" y="1590" width="150" height="25.5" as="geometry" />
        </mxCell>
        <mxCell id="xh8E368RDv3vVkwyLtps-1782" value="Notícia" style="rounded=1;whiteSpace=wrap;html=1;shadow=0;labelBackgroundColor=none;strokeColor=none;strokeWidth=3;fillColor=#FF99CC;fontFamily=Helvetica;fontSize=14;fontColor=#FFFFFF;align=center;spacing=5;fontStyle=0;arcSize=7;perimeterSpacing=2;" parent="1" vertex="1">
          <mxGeometry x="2644" y="1409" width="150" height="25.5" as="geometry" />
        </mxCell>
        <mxCell id="xh8E368RDv3vVkwyLtps-1783" value="Eventos" style="rounded=1;whiteSpace=wrap;html=1;shadow=0;labelBackgroundColor=none;strokeColor=none;strokeWidth=3;fillColor=#FF99CC;fontFamily=Helvetica;fontSize=14;fontColor=#FFFFFF;align=center;spacing=5;fontStyle=0;arcSize=7;perimeterSpacing=2;" parent="1" vertex="1">
          <mxGeometry x="2644" y="1446" width="150" height="25.5" as="geometry" />
        </mxCell>
        <mxCell id="xh8E368RDv3vVkwyLtps-1784" value="Dicas" style="rounded=1;whiteSpace=wrap;html=1;shadow=0;labelBackgroundColor=none;strokeColor=none;strokeWidth=3;fillColor=#FF99CC;fontFamily=Helvetica;fontSize=14;fontColor=#FFFFFF;align=center;spacing=5;fontStyle=0;arcSize=7;perimeterSpacing=2;" parent="1" vertex="1">
          <mxGeometry x="2644" y="1483" width="150" height="25.5" as="geometry" />
        </mxCell>
        <mxCell id="xh8E368RDv3vVkwyLtps-1786" value="Ajuda e Suporte" style="rounded=1;whiteSpace=wrap;html=1;shadow=0;labelBackgroundColor=none;strokeColor=none;strokeWidth=3;fillColor=#66FF66;fontFamily=Helvetica;fontSize=14;fontColor=#FFFFFF;align=center;spacing=5;fontStyle=0;arcSize=7;perimeterSpacing=2;" parent="1" vertex="1">
          <mxGeometry x="2125" y="650" width="150" height="25.5" as="geometry" />
        </mxCell>
        <mxCell id="xh8E368RDv3vVkwyLtps-1787" value="Trends" style="rounded=1;whiteSpace=wrap;html=1;shadow=0;labelBackgroundColor=none;strokeColor=none;strokeWidth=3;fillColor=#FF99CC;fontFamily=Helvetica;fontSize=14;fontColor=#FFFFFF;align=center;spacing=5;fontStyle=0;arcSize=7;perimeterSpacing=2;" parent="1" vertex="1">
          <mxGeometry x="2644" y="1528" width="150" height="25.5" as="geometry" />
        </mxCell>
        <mxCell id="Px2apVdSIGhavR9rmw3k-1786" style="edgeStyle=orthogonalEdgeStyle;rounded=0;orthogonalLoop=1;jettySize=auto;html=1;exitX=1;exitY=0.5;exitDx=0;exitDy=0;" edge="1" parent="1" source="Px2apVdSIGhavR9rmw3k-1774" target="Px2apVdSIGhavR9rmw3k-1775">
          <mxGeometry relative="1" as="geometry" />
        </mxCell>
        <mxCell id="Px2apVdSIGhavR9rmw3k-1774" value="Cliente" style="rounded=0;whiteSpace=wrap;html=1;" vertex="1" parent="1">
          <mxGeometry x="80" y="110" width="150" height="50" as="geometry" />
        </mxCell>
        <mxCell id="Px2apVdSIGhavR9rmw3k-1787" style="edgeStyle=orthogonalEdgeStyle;rounded=0;orthogonalLoop=1;jettySize=auto;html=1;exitX=1;exitY=0.5;exitDx=0;exitDy=0;entryX=0;entryY=0.5;entryDx=0;entryDy=0;" edge="1" parent="1" source="Px2apVdSIGhavR9rmw3k-1775" target="Px2apVdSIGhavR9rmw3k-1776">
          <mxGeometry relative="1" as="geometry" />
        </mxCell>
        <mxCell id="Px2apVdSIGhavR9rmw3k-1775" value="realiza" style="rhombus;whiteSpace=wrap;html=1;" vertex="1" parent="1">
          <mxGeometry x="280" y="90" width="110" height="90" as="geometry" />
        </mxCell>
        <mxCell id="Px2apVdSIGhavR9rmw3k-1788" style="edgeStyle=orthogonalEdgeStyle;rounded=0;orthogonalLoop=1;jettySize=auto;html=1;exitX=0.5;exitY=1;exitDx=0;exitDy=0;entryX=0.5;entryY=0;entryDx=0;entryDy=0;" edge="1" parent="1" source="Px2apVdSIGhavR9rmw3k-1776" target="Px2apVdSIGhavR9rmw3k-1777">
          <mxGeometry relative="1" as="geometry" />
        </mxCell>
        <mxCell id="Px2apVdSIGhavR9rmw3k-1776" value="Cadastro" style="rounded=0;whiteSpace=wrap;html=1;" vertex="1" parent="1">
          <mxGeometry x="440" y="110" width="150" height="50" as="geometry" />
        </mxCell>
        <mxCell id="Px2apVdSIGhavR9rmw3k-1789" style="edgeStyle=orthogonalEdgeStyle;rounded=0;orthogonalLoop=1;jettySize=auto;html=1;exitX=0.5;exitY=1;exitDx=0;exitDy=0;entryX=0.5;entryY=0;entryDx=0;entryDy=0;" edge="1" parent="1" source="Px2apVdSIGhavR9rmw3k-1777" target="Px2apVdSIGhavR9rmw3k-1778">
          <mxGeometry relative="1" as="geometry" />
        </mxCell>
        <mxCell id="Px2apVdSIGhavR9rmw3k-1777" value="Cadastra" style="rhombus;whiteSpace=wrap;html=1;" vertex="1" parent="1">
          <mxGeometry x="460" y="200" width="110" height="90" as="geometry" />
        </mxCell>
        <mxCell id="Px2apVdSIGhavR9rmw3k-1790" style="edgeStyle=orthogonalEdgeStyle;rounded=0;orthogonalLoop=1;jettySize=auto;html=1;exitX=1;exitY=0.5;exitDx=0;exitDy=0;entryX=0;entryY=0.5;entryDx=0;entryDy=0;" edge="1" parent="1" source="Px2apVdSIGhavR9rmw3k-1778" target="Px2apVdSIGhavR9rmw3k-1779">
          <mxGeometry relative="1" as="geometry" />
        </mxCell>
        <mxCell id="Px2apVdSIGhavR9rmw3k-1811" style="edgeStyle=orthogonalEdgeStyle;rounded=0;orthogonalLoop=1;jettySize=auto;html=1;exitX=0;exitY=0.5;exitDx=0;exitDy=0;" edge="1" parent="1" source="Px2apVdSIGhavR9rmw3k-1778" target="Px2apVdSIGhavR9rmw3k-1796">
          <mxGeometry relative="1" as="geometry" />
        </mxCell>
        <mxCell id="Px2apVdSIGhavR9rmw3k-1814" style="edgeStyle=orthogonalEdgeStyle;rounded=0;orthogonalLoop=1;jettySize=auto;html=1;exitX=0.5;exitY=1;exitDx=0;exitDy=0;" edge="1" parent="1" source="Px2apVdSIGhavR9rmw3k-1778" target="Px2apVdSIGhavR9rmw3k-1810">
          <mxGeometry relative="1" as="geometry" />
        </mxCell>
        <mxCell id="Px2apVdSIGhavR9rmw3k-1778" value="Usuários" style="rounded=0;whiteSpace=wrap;html=1;" vertex="1" parent="1">
          <mxGeometry x="440" y="330" width="150" height="50" as="geometry" />
        </mxCell>
        <mxCell id="Px2apVdSIGhavR9rmw3k-1791" style="edgeStyle=orthogonalEdgeStyle;rounded=0;orthogonalLoop=1;jettySize=auto;html=1;exitX=1;exitY=0.5;exitDx=0;exitDy=0;" edge="1" parent="1" source="Px2apVdSIGhavR9rmw3k-1779" target="Px2apVdSIGhavR9rmw3k-1780">
          <mxGeometry relative="1" as="geometry" />
        </mxCell>
        <mxCell id="Px2apVdSIGhavR9rmw3k-1779" value="Fazem" style="rhombus;whiteSpace=wrap;html=1;" vertex="1" parent="1">
          <mxGeometry x="660" y="310" width="110" height="90" as="geometry" />
        </mxCell>
        <mxCell id="Px2apVdSIGhavR9rmw3k-1780" value="Posts" style="rounded=0;whiteSpace=wrap;html=1;" vertex="1" parent="1">
          <mxGeometry x="840" y="330" width="150" height="50" as="geometry" />
        </mxCell>
        <mxCell id="Px2apVdSIGhavR9rmw3k-1792" style="edgeStyle=orthogonalEdgeStyle;rounded=0;orthogonalLoop=1;jettySize=auto;html=1;exitX=0.5;exitY=1;exitDx=0;exitDy=0;entryX=0.5;entryY=0;entryDx=0;entryDy=0;" edge="1" parent="1" source="Px2apVdSIGhavR9rmw3k-1781" target="Px2apVdSIGhavR9rmw3k-1782">
          <mxGeometry relative="1" as="geometry" />
        </mxCell>
        <mxCell id="Px2apVdSIGhavR9rmw3k-1794" style="edgeStyle=orthogonalEdgeStyle;rounded=0;orthogonalLoop=1;jettySize=auto;html=1;exitX=1;exitY=0.5;exitDx=0;exitDy=0;entryX=0;entryY=0.5;entryDx=0;entryDy=0;" edge="1" parent="1" source="Px2apVdSIGhavR9rmw3k-1781" target="Px2apVdSIGhavR9rmw3k-1783">
          <mxGeometry relative="1" as="geometry" />
        </mxCell>
        <mxCell id="Px2apVdSIGhavR9rmw3k-1781" value="Administradores" style="rounded=0;whiteSpace=wrap;html=1;" vertex="1" parent="1">
          <mxGeometry x="840" y="110" width="150" height="50" as="geometry" />
        </mxCell>
        <mxCell id="Px2apVdSIGhavR9rmw3k-1793" style="edgeStyle=orthogonalEdgeStyle;rounded=0;orthogonalLoop=1;jettySize=auto;html=1;exitX=0.5;exitY=1;exitDx=0;exitDy=0;entryX=0.5;entryY=0;entryDx=0;entryDy=0;" edge="1" parent="1" source="Px2apVdSIGhavR9rmw3k-1782" target="Px2apVdSIGhavR9rmw3k-1780">
          <mxGeometry relative="1" as="geometry" />
        </mxCell>
        <mxCell id="Px2apVdSIGhavR9rmw3k-1782" value="Moderam" style="rhombus;whiteSpace=wrap;html=1;" vertex="1" parent="1">
          <mxGeometry x="860" y="200" width="110" height="90" as="geometry" />
        </mxCell>
        <mxCell id="Px2apVdSIGhavR9rmw3k-1817" style="edgeStyle=orthogonalEdgeStyle;rounded=0;orthogonalLoop=1;jettySize=auto;html=1;exitX=0.5;exitY=1;exitDx=0;exitDy=0;" edge="1" parent="1" source="Px2apVdSIGhavR9rmw3k-1783" target="Px2apVdSIGhavR9rmw3k-1784">
          <mxGeometry relative="1" as="geometry" />
        </mxCell>
        <mxCell id="Px2apVdSIGhavR9rmw3k-1783" value="Publicam" style="rhombus;whiteSpace=wrap;html=1;" vertex="1" parent="1">
          <mxGeometry x="1060" y="90" width="110" height="90" as="geometry" />
        </mxCell>
        <mxCell id="Px2apVdSIGhavR9rmw3k-1784" value="Notícias" style="rounded=0;whiteSpace=wrap;html=1;" vertex="1" parent="1">
          <mxGeometry x="1040" y="440" width="150" height="50" as="geometry" />
        </mxCell>
        <mxCell id="Px2apVdSIGhavR9rmw3k-1812" style="edgeStyle=orthogonalEdgeStyle;rounded=0;orthogonalLoop=1;jettySize=auto;html=1;exitX=0.5;exitY=1;exitDx=0;exitDy=0;entryX=0.5;entryY=0;entryDx=0;entryDy=0;" edge="1" parent="1" source="Px2apVdSIGhavR9rmw3k-1796" target="Px2apVdSIGhavR9rmw3k-1798">
          <mxGeometry relative="1" as="geometry" />
        </mxCell>
        <mxCell id="Px2apVdSIGhavR9rmw3k-1796" value="Tem" style="rhombus;whiteSpace=wrap;html=1;" vertex="1" parent="1">
          <mxGeometry x="245" y="310" width="110" height="90" as="geometry" />
        </mxCell>
        <mxCell id="Px2apVdSIGhavR9rmw3k-1797" value="Usuários" style="rounded=0;whiteSpace=wrap;html=1;" vertex="1" parent="1">
          <mxGeometry x="840" y="660" width="150" height="50" as="geometry" />
        </mxCell>
        <mxCell id="Px2apVdSIGhavR9rmw3k-1798" value="Informações" style="swimlane;fontStyle=0;childLayout=stackLayout;horizontal=1;startSize=30;horizontalStack=0;resizeParent=1;resizeParentMax=0;resizeLast=0;collapsible=1;marginBottom=0;" vertex="1" parent="1">
          <mxGeometry x="230" y="464.5" width="140" height="300" as="geometry" />
        </mxCell>
        <mxCell id="Px2apVdSIGhavR9rmw3k-1799" value="Nome" style="text;strokeColor=none;fillColor=none;align=left;verticalAlign=middle;spacingLeft=4;spacingRight=4;overflow=hidden;points=[[0,0.5],[1,0.5]];portConstraint=eastwest;rotatable=0;" vertex="1" parent="Px2apVdSIGhavR9rmw3k-1798">
          <mxGeometry y="30" width="140" height="30" as="geometry" />
        </mxCell>
        <mxCell id="Px2apVdSIGhavR9rmw3k-1800" value="Senha" style="text;strokeColor=none;fillColor=none;align=left;verticalAlign=middle;spacingLeft=4;spacingRight=4;overflow=hidden;points=[[0,0.5],[1,0.5]];portConstraint=eastwest;rotatable=0;" vertex="1" parent="Px2apVdSIGhavR9rmw3k-1798">
          <mxGeometry y="60" width="140" height="30" as="geometry" />
        </mxCell>
        <mxCell id="Px2apVdSIGhavR9rmw3k-1801" value="Email" style="text;strokeColor=none;fillColor=none;align=left;verticalAlign=middle;spacingLeft=4;spacingRight=4;overflow=hidden;points=[[0,0.5],[1,0.5]];portConstraint=eastwest;rotatable=0;" vertex="1" parent="Px2apVdSIGhavR9rmw3k-1798">
          <mxGeometry y="90" width="140" height="30" as="geometry" />
        </mxCell>
        <mxCell id="Px2apVdSIGhavR9rmw3k-1802" value="Número" style="text;strokeColor=none;fillColor=none;align=left;verticalAlign=middle;spacingLeft=4;spacingRight=4;overflow=hidden;points=[[0,0.5],[1,0.5]];portConstraint=eastwest;rotatable=0;" vertex="1" parent="Px2apVdSIGhavR9rmw3k-1798">
          <mxGeometry y="120" width="140" height="30" as="geometry" />
        </mxCell>
        <mxCell id="Px2apVdSIGhavR9rmw3k-1803" value="ID" style="text;strokeColor=none;fillColor=none;align=left;verticalAlign=middle;spacingLeft=4;spacingRight=4;overflow=hidden;points=[[0,0.5],[1,0.5]];portConstraint=eastwest;rotatable=0;" vertex="1" parent="Px2apVdSIGhavR9rmw3k-1798">
          <mxGeometry y="150" width="140" height="30" as="geometry" />
        </mxCell>
        <mxCell id="Px2apVdSIGhavR9rmw3k-1804" value="Perfil" style="text;strokeColor=none;fillColor=none;align=left;verticalAlign=middle;spacingLeft=4;spacingRight=4;overflow=hidden;points=[[0,0.5],[1,0.5]];portConstraint=eastwest;rotatable=0;" vertex="1" parent="Px2apVdSIGhavR9rmw3k-1798">
          <mxGeometry y="180" width="140" height="30" as="geometry" />
        </mxCell>
        <mxCell id="Px2apVdSIGhavR9rmw3k-1805" value="Foto" style="text;strokeColor=none;fillColor=none;align=left;verticalAlign=middle;spacingLeft=4;spacingRight=4;overflow=hidden;points=[[0,0.5],[1,0.5]];portConstraint=eastwest;rotatable=0;" vertex="1" parent="Px2apVdSIGhavR9rmw3k-1798">
          <mxGeometry y="210" width="140" height="30" as="geometry" />
        </mxCell>
        <mxCell id="Px2apVdSIGhavR9rmw3k-1806" value="Data de nascimento" style="text;strokeColor=none;fillColor=none;align=left;verticalAlign=middle;spacingLeft=4;spacingRight=4;overflow=hidden;points=[[0,0.5],[1,0.5]];portConstraint=eastwest;rotatable=0;" vertex="1" parent="Px2apVdSIGhavR9rmw3k-1798">
          <mxGeometry y="240" width="140" height="30" as="geometry" />
        </mxCell>
        <mxCell id="Px2apVdSIGhavR9rmw3k-1818" value="Profissão" style="text;strokeColor=none;fillColor=none;align=left;verticalAlign=middle;spacingLeft=4;spacingRight=4;overflow=hidden;points=[[0,0.5],[1,0.5]];portConstraint=eastwest;rotatable=0;" vertex="1" parent="Px2apVdSIGhavR9rmw3k-1798">
          <mxGeometry y="270" width="140" height="30" as="geometry" />
        </mxCell>
        <mxCell id="Px2apVdSIGhavR9rmw3k-1815" style="edgeStyle=orthogonalEdgeStyle;rounded=0;orthogonalLoop=1;jettySize=auto;html=1;exitX=1;exitY=0.5;exitDx=0;exitDy=0;entryX=0;entryY=0.5;entryDx=0;entryDy=0;" edge="1" parent="1" source="Px2apVdSIGhavR9rmw3k-1810" target="Px2apVdSIGhavR9rmw3k-1784">
          <mxGeometry relative="1" as="geometry" />
        </mxCell>
        <mxCell id="Px2apVdSIGhavR9rmw3k-1810" value="Acessam" style="rhombus;whiteSpace=wrap;html=1;" vertex="1" parent="1">
          <mxGeometry x="460" y="420" width="110" height="90" as="geometry" />
        </mxCell>
      </root>
    </mxGraphModel>
  </diagram>
</mxfile>
